<svg width="680" height="360" viewBox="0 0 680 360" role="img" xmlns="http://www.w3.org/2000/svg">
<title>After Human logo</title>
<desc>A human silhouette dissolving into an ordered grid of squares in cyan, with the wordmark AFTER HUMAN beneath it.</desc>
<style>
.mk{fill:#0F1720}
.ac{fill:#38C6F4}
.wd{font-family:'Inter','Helvetica Neue',Arial,sans-serif;font-weight:500;letter-spacing:14px;font-size:34px;fill:#0F1720}
.wd2{font-family:'Inter','Helvetica Neue',Arial,sans-serif;font-weight:400;letter-spacing:14px;font-size:34px;fill:#7C93A8}
.tag{font-family:'IBM Plex Mono','SF Mono',monospace;font-size:12px;letter-spacing:3px;fill:#7C93A8}
@media (prefers-color-scheme: dark){
.mk{fill:#E8F2FA}
.ac{fill:#5FD4FF}
.wd{fill:#E8F2FA}
}
</style>

<g transform="translate(216,44)">
<circle class="mk" cx="34" cy="26" r="22"/>
<path class="mk" d="M6 60 h56 a6 6 0 0 1 6 6 v78 a6 6 0 0 1 -6 6 h-56 a6 6 0 0 1 -6 -6 v-78 a6 6 0 0 1 6 -6 z"/>

<rect class="mk" x="86" y="10" width="14" height="14" rx="2" opacity="0.9"/>
<rect class="mk" x="108" y="30" width="12" height="12" rx="2" opacity="0.75"/>
<rect class="mk" x="92" y="52" width="11" height="11" rx="2" opacity="0.7"/>
<rect class="mk" x="116" y="66" width="13" height="13" rx="2" opacity="0.6"/>
<rect class="mk" x="98" y="92" width="10" height="10" rx="2" opacity="0.55"/>
<rect class="mk" x="120" y="108" width="12" height="12" rx="2" opacity="0.5"/>
<rect class="mk" x="94" y="126" width="11" height="11" rx="2" opacity="0.45"/>

<g transform="translate(150,10)">
<rect class="ac" x="0" y="0" width="18" height="18" rx="2"/>
<rect class="ac" x="26" y="0" width="18" height="18" rx="2"/>
<rect class="ac" x="52" y="0" width="18" height="18" rx="2"/>
<rect class="ac" x="0" y="26" width="18" height="18" rx="2"/>
<rect class="ac" x="26" y="26" width="18" height="18" rx="2"/>
<rect class="ac" x="52" y="26" width="18" height="18" rx="2"/>
<rect class="ac" x="0" y="52" width="18" height="18" rx="2"/>
<rect class="ac" x="26" y="52" width="18" height="18" rx="2"/>
<rect class="ac" x="52" y="52" width="18" height="18" rx="2"/>
<rect class="ac" x="0" y="78" width="18" height="18" rx="2"/>
<rect class="ac" x="26" y="78" width="18" height="18" rx="2"/>
<rect class="ac" x="52" y="78" width="18" height="18" rx="2"/>
<rect class="ac" x="0" y="104" width="18" height="18" rx="2"/>
<rect class="ac" x="26" y="104" width="18" height="18" rx="2"/>
<rect class="ac" x="52" y="104" width="18" height="18" rx="2"/>
<rect class="ac" x="0" y="130" width="18" height="18" rx="2"/>
<rect class="ac" x="26" y="130" width="18" height="18" rx="2"/>
<rect class="ac" x="52" y="130" width="18" height="18" rx="2"/>
</g>
</g>

<text class="wd" x="340" y="268" text-anchor="middle">AFTER<tspan class="wd2"> HUMAN</tspan></text>
<text class="tag" x="340" y="308" text-anchor="middle">THE WORKFORCE THAT COMES NEXT</text>
</svg>
