<svg xmlns="http://www.w3.org/2000/svg" viewBox="0 0 121.23 73.487" fill="#000"><path transform="translate(25.251 0)" d="M 35.382 34.992 C 49.942 34.992 73.716 20.513 70.056 10.211 C 65.098 -3.712 7.698 -3.092 0.716 10.211 C -4.444 20.048 19.438 34.999 35.382 34.992 Z"></path><path transform="translate(0 36.27)" d="M 118.615 16.108 C 116.634 17.873 114.547 19.519 112.365 21.038 C 110.262 22.516 108.059 23.854 105.856 25.164 C 101.354 27.744 96.631 29.933 91.741 31.706 C 81.631 35.442 70.905 37.309 60.103 37.213 C 49.202 36.967 38.453 34.649 28.45 30.39 C 23.662 28.365 19.053 25.953 14.672 23.178 C 12.52 21.77 10.403 20.362 8.386 18.756 C 6.287 17.143 4.288 15.407 2.402 13.559 C 1.635 12.824 1.028 11.945 0.615 10.974 C 0.203 10.004 -0.007 8.962 0 7.91 C 0.007 6.859 0.229 5.819 0.654 4.854 C 1.079 3.889 1.698 3.017 2.473 2.291 C 3.546 1.282 4.873 0.571 6.317 0.229 C 7.762 -0.112 9.273 -0.071 10.697 0.348 L 11.945 0.721 C 13.739 1.249 15.95 2.129 17.988 2.756 C 20.025 3.383 22.114 4.165 24.202 4.791 C 28.349 6.08 32.468 7.256 36.551 8.249 C 44.349 10.261 52.359 11.374 60.418 11.566 C 64.425 11.599 68.429 11.39 72.409 10.939 C 76.471 10.566 80.568 9.869 84.716 9.08 C 88.864 8.291 93.04 7.32 97.245 6.263 C 99.398 5.763 101.457 5.151 103.574 4.573 C 105.691 3.996 107.88 3.291 109.702 2.876 L 111.008 2.566 C 113.123 2.061 115.355 2.391 117.223 3.486 C 119.092 4.58 120.447 6.352 120.997 8.418 C 121.342 9.792 121.303 11.231 120.883 12.585 C 120.464 13.938 119.68 15.155 118.615 16.108 L 118.615 16.108 Z"></path></svg>